<svg xmlns="http://www.w3.org/2000/svg" viewBox="0 0 550.51 504.99"><defs><style>.cls-1{isolation:isolate;}.cls-2{fill:#fff;}.cls-3{fill:#aedccd;}.cls-4{fill:#80cab1;}.cls-5{fill:#e0e196;}.cls-6{fill:#9fb2db;}.cls-7{fill:#f0dba9;}.cls-8{fill:#e2aed0;}.cls-9{fill:#edd1d7;}.cls-10{fill:#fdf8fa;}.cls-11{fill:#e8eaf5;}.cls-12{fill:#d3d9ee;}.cls-13{fill:#fcefde;}.cls-14{fill:#e77387;}.cls-15{fill:#fbd684;}.cls-16{fill:#d9f0fa;}.cls-16,.cls-20{opacity:0.53;}.cls-17{fill:#bacd8b;}.cls-18{fill:#e1edf1;}.cls-19{fill:#8e9ed0;}.cls-20{fill:#b3e2f5;}.cls-21{fill:#f7c083;}.cls-22{fill:#89d5f1;}.cls-23{fill:#4cc0e5;}.cls-24,.cls-25{fill:#dce2f2;}.cls-25{opacity:0.63;}.cls-26{fill:#fac7c4;}.cls-27{fill:#eb8580;}.cls-28{fill:#b6d0ec;}.cls-29{fill:#bf75af;}.cls-30{fill:#dc6293;}.cls-31{fill:#eea4c8;}.cls-32{fill:#e179af;}.cls-33{fill:#f7cade;}.cls-34{fill:#c3d8d7;opacity:0.62;mix-blend-mode:multiply;}.cls-35{fill:#a6ddee;}.cls-36{fill:#ecb782;}.cls-37{fill:#f4c794;}.cls-38{fill:#773726;}.cls-39{fill:#813c2e;}.cls-40{fill:#70bbc8;}.cls-41{fill:#c3e7ee;}.cls-42{fill:#dee6e7;}.cls-43{fill:#479cb6;}.cls-44{fill:#308795;}.cls-45{fill:#e9b179;}.cls-46{fill:#e27059;}.cls-47{fill:#eeb47b;}.cls-48{fill:#bbc7e6;}.cls-49{fill:#a49cc3;}.cls-50{fill:#5b5470;}.cls-51{fill:#a3b7de;}</style></defs><title>Asset 3</title><g class="cls-1"><g id="Layer_2" data-name="Layer 2"><g id="OBJECTS"><path class="cls-2" d="M507.8,0c.89,39.44-30,77.29-69.34,85-31.22,6.15-63.08-5-92.45-17.06s-59.53-25.66-91.36-24.63S189,65.53,186.33,96.72c-.87,10.18,1.55,20.8-1.85,30.46-5.1,14.47-21.77,22-37.3,23.26s-31.14-2-46.71-1.19c-46.95,2.31-86.23,43.46-93.72,89.07s12.6,92.7,44.86,126.3c20.35,21.2,45.77,38.44,60.26,63.87a93.72,93.72,0,0,1,8.62,71.42c30.49,2.65,59.64,9.09,89.26,1.51H550.51C510.6,340.8,492.87,164.69,507.8,0Z"/><ellipse class="cls-2" cx="142.76" cy="109.62" rx="24.13" ry="23.71"/><ellipse class="cls-2" cx="421.23" cy="61.66" rx="15.54" ry="15.27"/><path class="cls-2" d="M152.1,45.29a8,8,0,1,0,8.1,8A8,8,0,0,0,152.1,45.29Z"/><path class="cls-3" d="M59,349.69c-7.3-7.06-15.75-13.6-25.73-15.43S11.56,336.68,7.7,346.07c-3,7.39-.58,16.1,4.12,22.57s11.35,11.17,17.75,16a408.08,408.08,0,0,1,49.82,44c14.77,15.35,26.75,37.25,42.73,50.43C117.16,434.32,91.3,381,59,349.69Z"/><path class="cls-4" d="M26.56,358.24A292.23,292.23,0,0,1,128,487.06c1.36,3.39,6.63,1.26,5.26-2.14A297.68,297.68,0,0,0,30.08,353.78c-3-2.12-6.51,2.33-3.52,4.46Z"/><path class="cls-3" d="M37.55,417.42c-7.76-2.28-16.14-3.76-23.86-1.35S-.7,425.82.06,433.86c.6,6.34,5.56,11.58,11.26,14.39s12.15,3.67,18.44,4.67a326.8,326.8,0,0,1,51.42,12.54c16.1,5.34,32.66,16.35,48.81,19.71C109.94,455.51,71.93,427.5,37.55,417.42Z"/><path class="cls-4" d="M17.86,435.46a232.68,232.68,0,0,1,119.23,53.23c2.21,1.88,5.14-1.57,2.92-3.46A237.11,237.11,0,0,0,18.69,431c-2.88-.39-3.72,4.06-.83,4.45Z"/><path class="cls-3" d="M109.88,347.64c1.85-9.08,4.85-18.37,11.43-24.9s17.59-9.36,25.35-4.28c6.1,4,8.75,11.84,8.54,19.14s-2.79,14.28-5.15,21.19a373.74,373.74,0,0,0-14.86,58.85c-3.22,19.18-.95,41.87-6.2,60.05C109.68,441.45,101.66,387.91,109.88,347.64Z"/><path class="cls-4" d="M138.73,337.36a266.91,266.91,0,0,0-10,149.4c.73,3.26-4.35,4.38-5.07,1.11a271.86,271.86,0,0,1,10.09-152c1.15-3.13,6.11-1.6,5,1.54Z"/><rect class="cls-5" x="418.11" y="145.5" width="56.46" height="8.54"/><rect class="cls-6" x="418.11" y="136.86" width="56.46" height="8.54"/><rect class="cls-7" x="418.11" y="128.41" width="56.46" height="8.54"/><rect class="cls-8" x="418.11" y="119.78" width="56.46" height="8.54"/><rect class="cls-9" x="387.27" y="129.51" width="28.79" height="24.66"/><rect class="cls-7" x="387.27" y="143.19" width="28.79" height="10.98"/><rect class="cls-10" x="391.29" y="134.02" width="20.22" height="15.63"/><rect class="cls-11" x="357" y="94.47" width="13.5" height="59.59"/><rect class="cls-12" x="360.62" y="98.79" width="6.27" height="8.75"/><rect class="cls-12" x="360.62" y="118.23" width="6.27" height="31.51"/><rect class="cls-11" x="371.86" y="94.47" width="13.5" height="59.59"/><rect class="cls-12" x="375.47" y="98.79" width="6.27" height="8.75"/><rect class="cls-12" x="375.47" y="118.23" width="6.27" height="31.51"/><rect class="cls-9" x="438.36" y="171.26" width="25.79" height="22.08"/><rect class="cls-7" x="438.36" y="183.51" width="25.79" height="9.83"/><rect class="cls-10" x="441.97" y="175.3" width="18.11" height="14"/><rect class="cls-9" x="411.54" y="171.26" width="25.79" height="22.08"/><rect class="cls-7" x="411.54" y="183.51" width="25.79" height="9.83"/><rect class="cls-10" x="415.14" y="175.3" width="18.11" height="14"/><path class="cls-13" d="M392.53,183.79l-1.86-1.86-4.37.54-4.37-.54-1.86,1.86a4.09,4.09,0,0,0-1.2,2.89v8.71a4,4,0,0,0,.2,1.25,2.37,2.37,0,0,0,2.27,1.65h9.92a2.37,2.37,0,0,0,2.27-1.65,4,4,0,0,0,.2-1.25v-8.71A4.09,4.09,0,0,0,392.53,183.79Z"/><rect class="cls-14" x="380.19" y="181.16" width="12.22" height="1.92" rx="0.75" ry="0.75"/><rect class="cls-15" x="380.37" y="186.67" width="11.86" height="8.15"/><rect class="cls-16" x="383.66" y="186.24" width="5.29" height="9" transform="translate(577.04 -195.56) rotate(90)"/><rect class="cls-17" x="246.53" y="184.51" width="16.04" height="30.77" rx="4.41" ry="4.41"/><path class="cls-5" d="M246.53,186.16v13.7a19.63,19.63,0,0,1,16-9.41v-4.29a1.5,1.5,0,0,0-1.5-1.5H248A1.5,1.5,0,0,0,246.53,186.16Z"/><path class="cls-2" d="M262.57,208.2V190.45a19.63,19.63,0,0,0-16,9.41v14.07a1.56,1.56,0,0,0,.1.53C255.08,214.54,260,211,262.57,208.2Z"/><path class="cls-5" d="M246.63,214.46a1.49,1.49,0,0,0,1.4,1h13a1.5,1.5,0,0,0,1.5-1.5V208.2C260,211,255.08,214.54,246.63,214.46Z"/><rect class="cls-5" x="249.13" y="202.36" width="10.84" height="1.08" rx="0.3" ry="0.3"/><rect class="cls-5" x="249.13" y="205.17" width="10.84" height="1.08" rx="0.3" ry="0.3"/><path class="cls-5" d="M256.88,208h-4.66a.54.54,0,0,0,0,1.08h4.66a.54.54,0,0,0,0-1.08Z"/><rect class="cls-17" x="262.98" y="184.51" width="16.04" height="30.77" rx="4.41" ry="4.41"/><path class="cls-5" d="M263,186.16v13.7a19.63,19.63,0,0,1,16-9.41v-4.29a1.5,1.5,0,0,0-1.5-1.5h-13A1.5,1.5,0,0,0,263,186.16Z"/><path class="cls-2" d="M279,208.2V190.45a19.63,19.63,0,0,0-16,9.41v14.07a1.56,1.56,0,0,0,.1.53C271.53,214.54,276.44,211,279,208.2Z"/><path class="cls-5" d="M263.08,214.46a1.49,1.49,0,0,0,1.4,1h13a1.5,1.5,0,0,0,1.5-1.5V208.2C276.44,211,271.53,214.54,263.08,214.46Z"/><rect class="cls-5" x="265.58" y="202.36" width="10.84" height="1.08" rx="0.3" ry="0.3"/><rect class="cls-5" x="265.58" y="205.17" width="10.84" height="1.08" rx="0.3" ry="0.3"/><path class="cls-5" d="M273.33,208h-4.66a.54.54,0,1,0,0,1.08h4.66a.54.54,0,0,0,0-1.08Z"/><rect class="cls-17" x="279.43" y="184.51" width="16.04" height="30.77" rx="4.41" ry="4.41"/><path class="cls-5" d="M279.43,186.16v13.7a19.65,19.65,0,0,1,16-9.41v-4.29a1.5,1.5,0,0,0-1.5-1.5h-13A1.5,1.5,0,0,0,279.43,186.16Z"/><path class="cls-2" d="M295.47,208.2V190.45a19.65,19.65,0,0,0-16,9.41v14.07a1.56,1.56,0,0,0,.1.53C288,214.54,292.89,211,295.47,208.2Z"/><path class="cls-5" d="M279.53,214.46a1.49,1.49,0,0,0,1.4,1h13a1.5,1.5,0,0,0,1.5-1.5V208.2C292.89,211,288,214.54,279.53,214.46Z"/><rect class="cls-5" x="282.03" y="202.36" width="10.84" height="1.08" rx="0.3" ry="0.3"/><rect class="cls-5" x="282.03" y="205.17" width="10.84" height="1.08" rx="0.3" ry="0.3"/><path class="cls-5" d="M289.78,208h-4.66a.54.54,0,1,0,0,1.08h4.66a.54.54,0,0,0,0-1.08Z"/><path class="cls-18" d="M244.3,193.94l-2.74-2.73-6.44.79-6.43-.79L226,193.94a6,6,0,0,0-1.76,4.26V211a6,6,0,0,0,.29,1.84,3.49,3.49,0,0,0,3.34,2.42h14.61a3.5,3.5,0,0,0,3.34-2.42,6,6,0,0,0,.29-1.84V198.2A6,6,0,0,0,244.3,193.94Z"/><rect class="cls-19" x="226.13" y="190.06" width="17.99" height="2.82" rx="1.1" ry="1.1"/><rect class="cls-19" x="226.39" y="198.18" width="17.46" height="12"/><rect class="cls-20" x="231.23" y="197.55" width="7.79" height="13.26" transform="translate(439.3 -30.95) rotate(90)"/><path class="cls-13" d="M368.55,191.2l-3.09-3.09-7.27.9-7.26-.9-3.09,3.09a6.8,6.8,0,0,0-2,4.8v14.48a6.66,6.66,0,0,0,.33,2.08,4,4,0,0,0,3.77,2.73h16.48a4,4,0,0,0,3.78-2.73,7,7,0,0,0,.33-2.08V196A6.8,6.8,0,0,0,368.55,191.2Z"/><rect class="cls-21" x="348.04" y="186.82" width="20.31" height="3.18" rx="1.24" ry="1.24"/><rect class="cls-15" x="348.34" y="195.98" width="19.71" height="13.54"/><rect class="cls-16" x="353.8" y="195.26" width="8.79" height="14.96" transform="translate(560.94 -155.45) rotate(90)"/><path class="cls-13" d="M384.82,200.92,383,199.06l-4.37.54-4.37-.54-1.86,1.86a4.09,4.09,0,0,0-1.2,2.89v8.71a4,4,0,0,0,.2,1.25,2.37,2.37,0,0,0,2.27,1.64h9.92a2.37,2.37,0,0,0,2.27-1.64,4,4,0,0,0,.2-1.25v-8.71A4.13,4.13,0,0,0,384.82,200.92Z"/><rect class="cls-14" x="372.48" y="198.28" width="12.22" height="1.92" rx="0.75" ry="0.75"/><rect class="cls-15" x="372.66" y="203.79" width="11.86" height="8.15"/><rect class="cls-16" x="375.94" y="203.37" width="5.29" height="9" transform="translate(586.46 -170.72) rotate(90)"/><path class="cls-13" d="M400.24,200.92l-1.86-1.86-4.37.54-4.37-.54-1.86,1.86a4.09,4.09,0,0,0-1.2,2.89v8.71a4,4,0,0,0,.2,1.25,2.37,2.37,0,0,0,2.27,1.64H399a2.37,2.37,0,0,0,2.27-1.64,4,4,0,0,0,.2-1.25v-8.71A4.09,4.09,0,0,0,400.24,200.92Z"/><rect class="cls-14" x="387.9" y="198.28" width="12.22" height="1.92" rx="0.75" ry="0.75"/><rect class="cls-15" x="388.08" y="203.79" width="11.86" height="8.15"/><rect class="cls-16" x="391.37" y="203.37" width="5.29" height="9" transform="translate(601.88 -186.14) rotate(90)"/><path class="cls-22" d="M206.13,181.77V197a1.23,1.23,0,0,0,1.22,1.23H216a1.23,1.23,0,0,0,1.22-1.23V181.77Z"/><path class="cls-23" d="M208,181.77v13.87c0,.62.36,1.12.8,1.12h5.69c.44,0,.8-.5.8-1.12V181.77Z"/><rect class="cls-24" x="205.19" y="181.06" width="12.99" height="1.76" rx="0.65" ry="0.65"/><rect class="cls-25" x="207.54" y="189.18" width="8.29" height="4.41"/><path class="cls-22" d="M199.42,198.88v15.18a1.23,1.23,0,0,0,1.23,1.23h8.66a1.23,1.23,0,0,0,1.23-1.23V198.88Z"/><path class="cls-23" d="M201.34,198.88v13.88c0,.61.35,1.12.8,1.12h5.68c.45,0,.81-.51.81-1.12V198.88Z"/><rect class="cls-24" x="198.49" y="198.18" width="12.99" height="1.76" rx="0.65" ry="0.65"/><rect class="cls-25" x="200.83" y="206.29" width="8.29" height="4.41"/><path class="cls-22" d="M212.48,198.88v15.18a1.23,1.23,0,0,0,1.22,1.23h8.67a1.23,1.23,0,0,0,1.22-1.23V198.88Z"/><path class="cls-23" d="M214.39,198.88v13.88c0,.61.36,1.12.8,1.12h5.69c.44,0,.8-.51.8-1.12V198.88Z"/><rect class="cls-24" x="211.54" y="198.18" width="12.99" height="1.76" rx="0.65" ry="0.65"/><rect class="cls-25" x="213.89" y="206.29" width="8.29" height="4.41"/><rect class="cls-26" x="297.07" y="193.85" width="15.25" height="21.58" rx="2.12" ry="2.12"/><path class="cls-27" d="M310.71,191h-12a1.48,1.48,0,0,0,0,2.95h12a1.48,1.48,0,0,0,0-2.95Z"/><rect class="cls-27" x="299.48" y="195.57" width="10.33" height="18.21" rx="1.09" ry="1.09"/><rect class="cls-2" x="298.66" y="200.19" width="11.96" height="8.43"/><rect class="cls-26" x="313.38" y="193.85" width="15.24" height="21.58" rx="2.12" ry="2.12"/><path class="cls-27" d="M327,191H315a1.48,1.48,0,1,0,0,2.95h12a1.48,1.48,0,0,0,0-2.95Z"/><rect class="cls-27" x="315.79" y="195.57" width="10.33" height="18.21" rx="1.09" ry="1.09"/><rect class="cls-2" x="314.98" y="200.19" width="11.96" height="8.43"/><rect class="cls-26" x="329.69" y="193.85" width="15.25" height="21.58" rx="2.12" ry="2.12"/><path class="cls-27" d="M343.33,191h-12a1.48,1.48,0,1,0,0,2.95h12a1.48,1.48,0,1,0,0-2.95Z"/><rect class="cls-27" x="332.1" y="195.57" width="10.33" height="18.21" rx="1.09" ry="1.09"/><rect class="cls-2" x="331.29" y="200.19" width="11.96" height="8.43"/><rect class="cls-28" x="191.53" y="214.94" width="292.52" height="4.59" rx="1.26" ry="1.26"/><rect class="cls-9" x="273.47" y="243.52" width="18.32" height="15.69"/><rect class="cls-7" x="273.47" y="252.22" width="18.32" height="6.99"/><rect class="cls-10" x="276.03" y="246.39" width="12.87" height="9.94"/><rect class="cls-9" x="254.41" y="243.52" width="18.32" height="15.69"/><rect class="cls-7" x="254.41" y="252.22" width="18.32" height="6.99"/><rect class="cls-10" x="256.97" y="246.39" width="12.87" height="9.94"/><rect class="cls-9" x="249.71" y="259" width="26.73" height="15.69"/><rect class="cls-7" x="249.71" y="267.71" width="26.73" height="6.98"/><rect class="cls-10" x="252.14" y="261.88" width="21.87" height="9.94"/><rect class="cls-9" x="277.28" y="259" width="18.32" height="15.69"/><rect class="cls-7" x="277.28" y="267.71" width="18.32" height="6.98"/><rect class="cls-10" x="279.84" y="261.88" width="12.87" height="9.94"/><rect class="cls-8" x="200.28" y="253.23" width="15.25" height="21.58" rx="2.12" ry="2.12"/><path class="cls-29" d="M213.92,250.37h-12a1.48,1.48,0,1,0,0,2.95h12a1.48,1.48,0,1,0,0-2.95Z"/><rect class="cls-30" x="202.69" y="254.94" width="10.33" height="18.21" rx="1.09" ry="1.09"/><rect class="cls-2" x="201.88" y="259.57" width="11.96" height="8.43"/><rect class="cls-8" x="216.59" y="253.23" width="15.25" height="21.58" rx="2.12" ry="2.12"/><path class="cls-29" d="M230.23,250.37h-12a1.48,1.48,0,1,0,0,2.95h12a1.48,1.48,0,1,0,0-2.95Z"/><rect class="cls-30" x="219" y="254.94" width="10.33" height="18.21" rx="1.09" ry="1.09"/><rect class="cls-2" x="218.19" y="259.57" width="11.96" height="8.43"/><rect class="cls-26" x="439.75" y="253.23" width="15.25" height="21.58" rx="2.12" ry="2.12"/><path class="cls-27" d="M453.4,250.37h-12a1.48,1.48,0,0,0,0,2.95h12a1.48,1.48,0,0,0,0-2.95Z"/><rect class="cls-27" x="442.17" y="254.94" width="10.33" height="18.21" rx="1.09" ry="1.09"/><rect class="cls-2" x="441.35" y="259.57" width="11.96" height="8.43"/><rect class="cls-26" x="456.07" y="253.23" width="15.25" height="21.58" rx="2.12" ry="2.12"/><path class="cls-27" d="M469.71,250.37h-12a1.48,1.48,0,0,0,0,2.95h12a1.48,1.48,0,0,0,0-2.95Z"/><rect class="cls-27" x="458.48" y="254.94" width="10.33" height="18.21" rx="1.09" ry="1.09"/><rect class="cls-2" x="457.67" y="259.57" width="11.96" height="8.43"/><rect class="cls-8" x="232.9" y="253.23" width="15.25" height="21.58" rx="2.12" ry="2.12"/><path class="cls-29" d="M246.54,250.37h-12a1.48,1.48,0,0,0,0,2.95h12a1.48,1.48,0,1,0,0-2.95Z"/><rect class="cls-30" x="235.31" y="254.94" width="10.33" height="18.21" rx="1.09" ry="1.09"/><rect class="cls-2" x="234.5" y="259.57" width="11.96" height="8.43"/><path class="cls-18" d="M317.82,253.69,315.08,251l-6.44.79-6.43-.79-2.74,2.73a6,6,0,0,0-1.76,4.26v12.83a6,6,0,0,0,.29,1.84,3.49,3.49,0,0,0,3.34,2.42H316a3.5,3.5,0,0,0,3.34-2.42,6,6,0,0,0,.29-1.84V258A6,6,0,0,0,317.82,253.69Z"/><rect class="cls-19" x="299.65" y="249.81" width="17.99" height="2.82" rx="1.1" ry="1.1"/><rect class="cls-19" x="299.91" y="257.93" width="17.46" height="12"/><rect class="cls-20" x="304.75" y="257.3" width="7.79" height="13.26" transform="translate(572.57 -44.72) rotate(90)"/><path class="cls-18" d="M342.32,253.69,339.59,251l-6.44.79-6.44-.79L324,253.69a6,6,0,0,0-1.77,4.26v12.83a6,6,0,0,0,.29,1.84,3.52,3.52,0,0,0,3.35,2.42h14.6a3.52,3.52,0,0,0,3.35-2.42,6,6,0,0,0,.29-1.84V258A6,6,0,0,0,342.32,253.69Z"/><rect class="cls-19" x="324.15" y="249.81" width="17.99" height="2.82" rx="1.1" ry="1.1"/><rect class="cls-19" x="324.42" y="257.93" width="17.46" height="12"/><rect class="cls-20" x="329.26" y="257.3" width="7.79" height="13.26" transform="translate(597.07 -69.23) rotate(90)"/><path class="cls-18" d="M366.83,253.69,364.1,251l-6.44.79-6.44-.79-2.74,2.73a6.06,6.06,0,0,0-1.76,4.26v12.83a6,6,0,0,0,.29,1.84,3.51,3.51,0,0,0,3.35,2.42H365a3.52,3.52,0,0,0,3.35-2.42,6.31,6.31,0,0,0,.28-1.84V258A6,6,0,0,0,366.83,253.69Z"/><rect class="cls-19" x="348.66" y="249.81" width="17.99" height="2.82" rx="1.1" ry="1.1"/><rect class="cls-19" x="348.93" y="257.93" width="17.46" height="12"/><rect class="cls-20" x="353.76" y="257.3" width="7.79" height="13.26" transform="translate(621.58 -93.73) rotate(90)"/><path class="cls-31" d="M371.87,247v25.2a2,2,0,0,0,2,2h14.39a2,2,0,0,0,2-2V247Z"/><path class="cls-32" d="M375.05,247v23c0,1,.59,1.86,1.33,1.86h9.44c.73,0,1.33-.83,1.33-1.86V247Z"/><rect class="cls-33" x="370.32" y="245.85" width="21.56" height="2.93" rx="1.08" ry="1.08"/><rect class="cls-25" x="374.22" y="259.33" width="13.76" height="7.32"/><path class="cls-31" d="M395.49,247v25.2a2,2,0,0,0,2,2H411.9a2,2,0,0,0,2-2V247Z"/><path class="cls-32" d="M398.66,247v23c0,1,.6,1.86,1.34,1.86h9.43c.74,0,1.34-.83,1.34-1.86V247Z"/><rect class="cls-33" x="393.93" y="245.85" width="21.56" height="2.93" rx="1.08" ry="1.08"/><rect class="cls-25" x="397.83" y="259.33" width="13.76" height="7.32"/><path class="cls-31" d="M419.1,247v25.2a2,2,0,0,0,2,2h14.38a2,2,0,0,0,2-2V247Z"/><path class="cls-32" d="M422.28,247v23c0,1,.6,1.86,1.33,1.86h9.44c.73,0,1.33-.83,1.33-1.86V247Z"/><rect class="cls-33" x="417.55" y="245.85" width="21.56" height="2.93" rx="1.08" ry="1.08"/><rect class="cls-25" x="421.45" y="259.33" width="13.77" height="7.32"/><rect class="cls-28" x="191.53" y="274.57" width="292.52" height="4.59" rx="1.26" ry="1.26"/><rect class="cls-9" x="404.92" y="193.06" width="37.63" height="22.08"/><rect class="cls-7" x="404.92" y="205.31" width="37.63" height="9.83"/><rect class="cls-10" x="408.34" y="197.1" width="30.79" height="14"/><rect class="cls-9" x="443.73" y="193.06" width="25.79" height="22.08"/><rect class="cls-7" x="443.73" y="205.31" width="25.79" height="9.83"/><rect class="cls-10" x="447.33" y="197.1" width="18.11" height="14"/><rect class="cls-28" x="191.53" y="153.55" width="292.52" height="4.59" rx="1.26" ry="1.26"/><path class="cls-34" d="M358.33,289.85h-3.57a7.83,7.83,0,0,0-1.89-.25h-4.26c4.52-27.78.58-55.49-5.06-65.69C332,203,297.73,192.56,297.73,192.56h0l1.08-8.44a29.31,29.31,0,0,0,10.77-12.94,57.44,57.44,0,0,0,2.84-9.46,7.38,7.38,0,0,0,5.78-2c3.18-3.21,2.36-9.17-1.13-11.82,3.3-5.23,4.17-12,4-18.27-.09-4.62-.69-9.43-3.28-13.25a11.41,11.41,0,0,0-9-5.08,16.4,16.4,0,0,0-24.63-9.25,18.44,18.44,0,0,1-11,2.28,17.23,17.23,0,0,0-13.17,4.7c-4.89,4.85-6.62,12.25-5.84,19.09.62,5.41,1.57,14.11,3.66,20.46a7.47,7.47,0,0,0-3,5.8c0,4.34,4.44,7.86,8.65,7.6a57.36,57.36,0,0,0,2.78,9.2A29.58,29.58,0,0,0,278,184.85l.75,7.71-31.85,12.62A29.33,29.33,0,0,0,229,226.57c-4.16,20.41-9.66,55.34-2.62,71.3,2.73,6.2,8.34,10.36,15.09,13.13l-.44,2.52-2.95,15,4.44.87v1.29c0,.59,0,1.17,0,1.76v1.3c0,.89,0,1.78,0,2.67v3c0,.37,0,.73,0,1.09v15.61c0,.41,0,.82,0,1.24v3.91c0,.32,0,.65,0,1V366c0,.74,0,1.47,0,2.19,0,.36,0,.72,0,1.08v2.28c0,.68,0,1.35,0,2v1.29c0,.25,0,.5,0,.74,0,.89,0,1.77,0,2.62v.43c0,.37,0,.73,0,1.09v2c0,.56,0,1.11,0,1.64,0,.24,0,.46,0,.69v1.22c0,.6,0,1.19,0,1.76,0,.07,0,.14,0,.21v1.47c0,1,0,1.92,0,2.78s0,1.81,0,2.58v.62c0,.45,0,.86,0,1.24v.37c0,.3,0,.58,0,.83,0,.49,0,.88,0,1.17v.56c26.76-8.52,45.33-45,45.33-45s1.46,2.89,4.17,7.23c1.2,1.93,2.65,4.14,4.32,6.52s3.57,4.91,5.67,7.49c7.87,9.65,18.62,19.79,31.17,23.78h0s.07-8.74.13-22.13v-.5c0-.7,0-1.41,0-2.13v-.22c0-1.73,0-3.52,0-5.37v0c0-1.85,0-3.77,0-5.73v-.15c0-.9,0-1.8,0-2.71v-3.5c0-1,0-2,0-3V340.94a2.48,2.48,0,0,0,.12.68,2.57,2.57,0,0,0,2.4,1.7h22.27a2.59,2.59,0,0,0,2.56-2.61V292.46A2.59,2.59,0,0,0,358.33,289.85Z"/><path class="cls-34" d="M348.21,289.85h-3.57a7.9,7.9,0,0,0-1.89-.25h-4.26c4.52-27.78.58-55.49-5.06-65.69-11.6-20.93-45.82-31.35-45.82-31.35h0l1.08-8.44a29.23,29.23,0,0,0,10.76-12.94,56.45,56.45,0,0,0,2.85-9.46,7.4,7.4,0,0,0,5.78-2c3.17-3.21,2.36-9.17-1.14-11.82,3.31-5.23,4.17-12,4.05-18.27-.1-4.62-.69-9.43-3.28-13.25a11.41,11.41,0,0,0-9.05-5.08,17,17,0,0,0-9-10.38A17.27,17.27,0,0,0,274,102.06a18.41,18.41,0,0,1-11,2.28A17.26,17.26,0,0,0,249.8,109c-4.88,4.85-6.61,12.25-5.83,19.09.62,5.41,1.57,14.11,3.65,20.46a7.49,7.49,0,0,0-3,5.8c0,4.34,4.44,7.86,8.65,7.6a56.36,56.36,0,0,0,2.78,9.2,29.58,29.58,0,0,0,11.88,13.66l.75,7.71-31.85,12.62a29.31,29.31,0,0,0-17.93,21.39c-4.17,20.41-9.67,55.34-2.63,71.3,2.74,6.2,8.35,10.36,15.1,13.13l-.44,2.52-2.95,15,4.44.87c0,.43,0,.86,0,1.29v6.66c0,.7,0,1.41,0,2.11v17.94c0,.46,0,.92,0,1.38v4.67c0,.52,0,1,0,1.54v1c0,.74,0,1.47,0,2.19v1.08c0,.48,0,.95,0,1.42v.86c0,.68,0,1.35,0,2v2c0,.89,0,1.77,0,2.62v1.52c0,.35,0,.68,0,1v1c0,.56,0,1.11,0,1.64v.69c0,.41,0,.82,0,1.22,0,.6,0,1.19,0,1.76v.21c0,.38,0,.75,0,1.11v.36c0,1,0,1.92,0,2.78s0,1.81,0,2.58v.62c0,.45,0,.86,0,1.24v.37c0,.3,0,.58,0,.83,0,.49,0,.88,0,1.17v.56c26.77-8.52,45.33-45,45.33-45s1.47,2.89,4.18,7.23c1.2,1.93,2.65,4.14,4.32,6.52s3.56,4.91,5.66,7.49c7.88,9.65,18.62,19.79,31.17,23.78h0s.08-8.74.14-22.13v-.5c0-.7,0-1.41,0-2.13v-.22c0-1.73,0-3.52,0-5.37v0c0-1.85,0-3.77,0-5.73v-.15c0-.9,0-1.8,0-2.71v-3.5c0-1,0-2,0-3V343.33c0-.79,0-1.59,0-2.39a2.49,2.49,0,0,0,.13.68,2.57,2.57,0,0,0,2.4,1.7h22.27a2.59,2.59,0,0,0,2.56-2.61V292.46A2.59,2.59,0,0,0,348.21,289.85Z"/><path class="cls-2" d="M282.19,278.27v76.35s18.56,36.5,45.33,45c0,0,1.22-141.16-2.43-158.19s-33.66-48.16-33.66-48.16Z"/><path class="cls-2" d="M282.19,278.27v76.35s-18.56,36.5-45.33,45c0,0-1.21-141.16,2.44-158.19S273,193.29,273,193.29Z"/><polygon class="cls-35" points="272.96 193.29 282.01 279.66 291.84 193.74 272.96 193.29"/><polygon class="cls-36" points="282.04 171.93 270.26 165.65 272.96 193.29 282.04 199.62 291.84 193.74 295.44 165.65 282.04 171.93"/><path class="cls-37" d="M259.53,121.35l-6.17,2.5s.77,33.34,7,48.06A30.53,30.53,0,0,0,276,187.61a14.39,14.39,0,0,0,12.14,0,30.53,30.53,0,0,0,15.64-15.7c6.2-14.72,7-48.06,7-48.06l-6.17-2.5A59.84,59.84,0,0,0,259.53,121.35Z"/><path class="cls-38" d="M260.85,143.7c1.27-4.33-1.73-9.38-.08-13.69,2.62-6.8,9.5-1.6,13.72.14,3.87,1.59,7.8,3.3,12,3.46a16.72,16.72,0,0,0,7.52-32,17.24,17.24,0,0,0-15.67,1.13,18.39,18.39,0,0,1-11,2.28,17.27,17.27,0,0,0-13.18,4.7c-4.88,4.85-6.61,12.25-5.83,19.09s2.09,19,5.56,24.91C251.72,148.38,259.23,149.25,260.85,143.7Z"/><path class="cls-37" d="M259.76,148c-4.71-2.06-10.89,2-10.86,7.14s6.22,9.15,10.92,7.06,5.86-9.39,2.05-12.84Z"/><path class="cls-38" d="M307.78,141.64c0,3.44-.16,7,.89,10.24,5.44-5.47,6.76-13.81,6.61-21.52-.1-4.61-.69-9.42-3.28-13.24s-7.7-6.26-12-4.53c-5.72,2.33-6.55,10.3-1.42,13.54,2.42,1.52,4.85,1.94,6.69,4.45C307.6,133.71,307.79,137.91,307.78,141.64Z"/><path class="cls-37" d="M309.64,147.74c-4.8-1.83-10.79,2.5-10.53,7.63l.52,2.46c1.88,4.78,9.12,6.27,12.74,2.63S314.43,149.58,309.64,147.74Z"/><path class="cls-39" d="M291.91,126.51a16.39,16.39,0,0,0,7.59-10.27,11.61,11.61,0,0,1-5.31,12.84,12.46,12.46,0,0,1-6.79,1.61c-1.56-.07-5.28-.4-5.85-2.08A17.86,17.86,0,0,0,291.91,126.51Z"/><polygon class="cls-40" points="287.76 206.38 282.19 199.62 276.63 206.38 279.74 209.41 277.39 235.65 282.19 278.27 287 235.65 284.65 209.41 287.76 206.38"/><polygon class="cls-41" points="282.19 199.62 274.6 209.08 272.96 193.29 282.19 199.62"/><polygon class="cls-41" points="282.19 199.62 290.08 209.15 291.91 193.29 282.19 199.62"/><path class="cls-42" d="M242.91,387.54s-5.33-48.81-5.88-96.33c-.7,46.73-.17,108.43-.17,108.43,26.77-8.52,45.33-45,45.33-45v-.09C271.31,366.75,262.18,382,242.91,387.54Z"/><path class="cls-42" d="M321.48,387.54s5.32-48.81,5.88-96.33c.7,46.73.16,108.43.16,108.43-26.77-8.52-45.33-45-45.33-45v-.09C293.08,366.75,302.21,382,321.48,387.54Z"/><rect class="cls-43" x="227.85" y="263.62" width="84.22" height="60.27" transform="translate(-70.4 501.89) rotate(-78.86)"/><path class="cls-44" d="M281.73,295.82a11.76,11.76,0,0,0-4.5-.81,7.83,7.83,0,0,0-3.11-1.18,9.62,9.62,0,0,0-5.84,1.32,19,19,0,0,0-3,2.12l-4.52.94-2.54,14.63a7.08,7.08,0,0,0-.55.65l-21.87-2.84-1,5.58s22.7,7.69,32.13,4l.94-3.77c6.36.43,13.51.34,15.26-.8a3.38,3.38,0,0,0,1.83-2.92,12.1,12.1,0,0,0,1.32-1.42c2.93-3.65.73-5.11.73-5.11s3.61,1.07,3.61-3.31C290.69,299.9,286.25,297.61,281.73,295.82Z"/><path class="cls-37" d="M274.41,290.9a9.65,9.65,0,0,0-5.84,1.32,26.7,26.7,0,0,0-4.68,3.62,70.38,70.38,0,0,0,15.17-2.57A8.69,8.69,0,0,0,274.41,290.9Z"/><path class="cls-45" d="M276.15,291.77a9.65,9.65,0,0,0-5.84,1.32,26.7,26.7,0,0,0-4.68,3.62,71.1,71.1,0,0,0,15.17-2.57A8.69,8.69,0,0,0,276.15,291.77Z"/><path class="cls-37" d="M282,292.89a11.81,11.81,0,0,0-6.73-.57l-14.21,3-2.54,14.63c-1,1-1.26,1.81-.38,2.17,3.68,1.51,22.36,2.64,25.34.69a3.36,3.36,0,0,0,1.82-2.92,12.2,12.2,0,0,0,1.33-1.42c2.92-3.65.73-5.11.73-5.11s3.6,1.07,3.6-3.31C291,297,286.54,294.68,282,292.89Z"/><path class="cls-2" d="M269.64,287.76c-8.25-1-18.77-2.37-23.06-3.54-7.53-2.06,3.43-44.52,3.43-44.52s24-25,22.95-46.41l-31.85,12.62a29.31,29.31,0,0,0-17.93,21.39c-4.16,20.41-9.67,55.34-2.63,71.3,6.56,14.85,29.55,18,45.34,18.34C266.91,307.17,268.76,299.32,269.64,287.76Z"/><path class="cls-42" d="M237.76,281.78c2,11.91,21.83,14.4,31.1,13.73.3-2.42.57-5,.78-7.75-8.25-1-18.77-2.37-23.06-3.54-7.53-2.06,3.43-44.52,3.43-44.52S236.07,271.69,237.76,281.78Z"/><path class="cls-38" d="M291.68,144.94a8,8,0,0,1,8.93.68c1.64,1.32,4-1,2.33-2.33a11.42,11.42,0,0,0-12.93-1.2c-1.86,1-.19,3.88,1.67,2.85Z"/><path class="cls-38" d="M277,144.94a8,8,0,0,0-8.94.68c-1.63,1.32-4-1-2.33-2.33a11.42,11.42,0,0,1,12.93-1.2c1.86,1,.2,3.88-1.66,2.85Z"/><path class="cls-38" d="M273,155.07c-2.64,0-2.65-4.1,0-4.1s2.64,4.1,0,4.1Z"/><path class="cls-38" d="M294.85,155.07c-2.64,0-2.64-4.1,0-4.1s2.64,4.1,0,4.1Z"/><path class="cls-46" d="M275.33,173.76a8.15,8.15,0,0,0,15.11-.86c.42-1.15-1.41-1.64-1.83-.51-2,5.54-9.17,5.57-11.64.41-.53-1.09-2.16-.14-1.64,1Z"/><path class="cls-47" d="M286.65,160.3a3.81,3.81,0,0,1-.29,3.88,4.35,4.35,0,0,1-3.81,1,4,4,0,0,0,5.58-5.35c-1.07-1.81-3.32-2.57-4-4.67C284.54,157.1,285.92,158.52,286.65,160.3Z"/><path class="cls-37" d="M300.7,335.08l-.14.24a10.77,10.77,0,0,1-4.91,4.36c-2.15.95-4.78,2.51-5.49,4.64h25.7l4-10Z"/><path class="cls-2" d="M291.91,193.29s34.22,10.41,45.82,31.35C347.34,242,352,310.19,318.4,342.93l-19.66-8.72s28.55-59.28,18.56-83.4S286,204.86,291.91,193.29Z"/><path class="cls-42" d="M310,236.23a132.24,132.24,0,0,1,7.3,14.58c10,24.12-18.56,83.4-18.56,83.4l2,.87c8.47-16.7,17.53-38.65,20.67-55.3C324.72,262,324.2,249.2,310,236.23Z"/><rect class="cls-17" x="329.77" y="290.5" width="27.39" height="52.57" rx="4.82" ry="4.82"/><path class="cls-5" d="M329.77,293.31v23.41c4.69-7.24,13.11-15.41,27.4-16.07v-7.34a2.57,2.57,0,0,0-2.57-2.56H332.33A2.56,2.56,0,0,0,329.77,293.31Z"/><path class="cls-2" d="M357.17,331V300.65c-14.29.66-22.71,8.83-27.4,16.07v24a2.65,2.65,0,0,0,.16.89C344.38,341.8,352.76,335.82,357.17,331Z"/><path class="cls-5" d="M329.93,341.65a2.56,2.56,0,0,0,2.4,1.67H354.6a2.57,2.57,0,0,0,2.57-2.56V331C352.76,335.82,344.38,341.8,329.93,341.65Z"/><rect class="cls-5" x="334.21" y="320.98" width="18.51" height="1.85" rx="0.33" ry="0.33"/><rect class="cls-5" x="334.21" y="325.79" width="18.51" height="1.85" rx="0.33" ry="0.33"/><path class="cls-5" d="M347.44,330.61h-7.95a.93.93,0,0,0,0,1.85h7.95a.93.93,0,1,0,0-1.85Z"/><path class="cls-34" d="M498.12,313.13c-1.05-4.89-6.36-8-11.36-7.95s-9.67,2.45-13.82,5.24c-14.5,9.73-28.22,26.45-36.48,43.49l-.36.44c.22-.77.44-1.55.65-2.33,10-18.15,16.31-41,15.86-60.08-.13-5.48-.9-11.19-4-15.68s-9.25-7.28-14.29-5.13c-4,1.69-6.32,6-7,10.23s.14,8.59.78,12.85A220.66,220.66,0,0,1,430.58,330a122.68,122.68,0,0,1-1.39,14.7c-1.41-12.51-5-25.05-10.46-34.83-2.12-3.81-4.78-7.55-8.66-9.55s-9.21-1.7-12,1.68c-2.17,2.66-2.25,6.55-1.12,9.79s3.28,6,5.32,8.77a175.71,175.71,0,0,1,15,24.29c3.55,6.93,5.68,15.55,9.27,22.53-.47.72-1,1.44-1.42,2.17a1.41,1.41,0,0,0,1.83,2,1.55,1.55,0,0,0,2.74.81c.09.87.19,1.73.27,2.6a1.22,1.22,0,0,0,2.43-.22c-.2-2.31-.49-4.61-.82-6.91.09-.21.18-.43.26-.64,8.56-5.11,16.06-14.28,24.3-20.24a201.47,201.47,0,0,1,28-17c3.53-1.76,7.17-3.47,10-6.19S499,317,498.12,313.13Z"/><path class="cls-3" d="M448.22,288c-.13-5.47-.9-11.19-4-15.67s-9.25-7.28-14.29-5.13c-4,1.69-6.32,6-7,10.23s.13,8.59.78,12.85a221.78,221.78,0,0,1,2.48,35.76c-.13,11.49-3.82,24.44-2.67,35.55C438.53,342.56,448.79,312.27,448.22,288Z"/><path class="cls-4" d="M432.53,279a157.71,157.71,0,0,1-9.82,87.88,1.53,1.53,0,0,0,2.83,1.18,160.6,160.6,0,0,0,10-89.44c-.34-1.94-3.39-1.57-3,.38Z"/><path class="cls-3" d="M414.34,305.92c-2.11-3.81-4.78-7.56-8.65-9.55s-9.22-1.71-12,1.67c-2.17,2.67-2.24,6.55-1.12,9.8s3.28,6,5.32,8.77a176.14,176.14,0,0,1,15,24.29c4.16,8.15,6.36,18.65,11.29,26.05C427.73,348,423.74,322.81,414.34,305.92Z"/><path class="cls-4" d="M400,305.4A125.49,125.49,0,0,1,425.6,371a1.22,1.22,0,0,0,2.43-.22A127.78,127.78,0,0,0,402,304c-1-1.24-3,.15-2,1.4Z"/><path class="cls-3" d="M468.55,306.5c4.15-2.79,8.82-5.22,13.82-5.24s10.31,3.06,11.36,7.95c.83,3.85-1.12,7.86-4,10.59s-6.48,4.43-10,6.19a202.38,202.38,0,0,0-28,17c-8.5,6.16-16.22,15.73-25.12,20.73C433,342.46,450.15,318.85,468.55,306.5Z"/><path class="cls-4" d="M483.53,313.47a144,144,0,0,0-60.4,53.62,1.4,1.4,0,0,1-2.37-1.49A146.7,146.7,0,0,1,482.21,311c1.62-.77,3,1.7,1.32,2.47Z"/><rect class="cls-48" x="144.3" y="346.22" width="353.27" height="129.04"/><path class="cls-49" d="M264.63,319l-19.57-61.67a4.83,4.83,0,0,0-4.6-3.38H131.74a4.84,4.84,0,0,0-4.61,6.3l19.56,61.68a4.84,4.84,0,0,0,4.61,3.37H260A4.84,4.84,0,0,0,264.63,319Z"/><polygon class="cls-50" points="204.26 325.2 217.84 325.2 204.99 293.36 204.26 325.2"/><rect class="cls-49" x="186.77" y="293.36" width="18.23" height="50.13"/><rect class="cls-51" x="144.3" y="346.22" width="353.27" height="11.86"/><path class="cls-48" d="M135.17,343.36H499.34a0,0,0,0,1,0,0v6.25a0,0,0,0,1,0,0H135.17a1.72,1.72,0,0,1-1.72-1.72v-2.81A1.72,1.72,0,0,1,135.17,343.36Z"/><path class="cls-51" d="M254.63,384.22c-7.19,0-10.92-5.33-11.22-10.9h-57c-.3,5.57-4,10.9-11.21,10.9v91.13H255V384.21Z"/><path class="cls-51" d="M435.83,384.22c-7.18,0-10.91-5.33-11.21-10.9h-57c-.31,5.57-4,10.9-11.22,10.9v91.13h79.79V384.21Z"/></g></g></g></svg>