<svg xmlns="http://www.w3.org/2000/svg" xmlns:xlink="http://www.w3.org/1999/xlink" viewBox="0 0 336.93 284.74"><defs><style>.cls-1,.cls-12,.cls-13,.cls-14{fill:none;}.cls-2{isolation:isolate;}.cls-3{fill:#d1dde8;}.cls-30,.cls-4{fill:#e7edf4;}.cls-17,.cls-5{fill:#235196;}.cls-6{fill:#4dd0e1;}.cls-11,.cls-15,.cls-16,.cls-17,.cls-18,.cls-19,.cls-20,.cls-21,.cls-22,.cls-23,.cls-24,.cls-25,.cls-26,.cls-27,.cls-28,.cls-29,.cls-7,.cls-8{mix-blend-mode:multiply;}.cls-7{fill:url(#linear-gradient);}.cls-8{fill:url(#linear-gradient-2);}.cls-9{clip-path:url(#clip-path);}.cls-10{fill:#fff;}.cls-11{fill:url(#linear-gradient-3);}.cls-12{stroke:#235196;stroke-linejoin:round;}.cls-12,.cls-13,.cls-14{stroke-width:3px;}.cls-13{stroke:#e7edf4;}.cls-13,.cls-14{stroke-linecap:round;stroke-miterlimit:10;}.cls-14{stroke:#d1dde8;}.cls-15{fill:url(#linear-gradient-4);}.cls-16{fill:url(#linear-gradient-5);}.cls-17{opacity:0.6;}.cls-18{fill:url(#linear-gradient-6);}.cls-19{fill:url(#linear-gradient-7);}.cls-20{fill:url(#linear-gradient-8);}.cls-21{fill:url(#linear-gradient-9);}.cls-22{fill:url(#linear-gradient-10);}.cls-23{fill:url(#linear-gradient-11);}.cls-24{fill:url(#linear-gradient-12);}.cls-25{fill:url(#linear-gradient-13);}.cls-26{fill:url(#linear-gradient-14);}.cls-27{fill:url(#linear-gradient-15);}.cls-28{fill:url(#linear-gradient-16);}.cls-29{fill:url(#linear-gradient-17);}.cls-30{opacity:0.7;}</style><linearGradient id="linear-gradient" x1="125.09" y1="203.13" x2="21.95" y2="159.64" gradientUnits="userSpaceOnUse"><stop offset="0" stop-color="#fff" stop-opacity="0"/><stop offset="1" stop-color="#235196"/></linearGradient><linearGradient id="linear-gradient-2" x1="26.9" y1="121.74" x2="90.87" y2="179.95" gradientTransform="translate(119.22 -6.09) rotate(40.39)" xlink:href="#linear-gradient"/><clipPath id="clip-path"><ellipse id="_Clipping_Path_" data-name="&lt;Clipping Path&gt;" class="cls-1" cx="67.88" cy="159.03" rx="24.37" ry="19.62" transform="translate(-86.87 81.88) rotate(-40.39)"/></clipPath><linearGradient id="linear-gradient-3" x1="249.4" y1="140.18" x2="-5.59" y2="140.18" gradientTransform="matrix(1, 0.09, -0.09, 1, 12.77, -15.74)" xlink:href="#linear-gradient"/><linearGradient id="linear-gradient-4" x1="188.9" y1="183.54" x2="212.74" y2="223.17" gradientTransform="translate(50.58 -16.27) rotate(21.04)" xlink:href="#linear-gradient"/><linearGradient id="linear-gradient-5" x1="215.63" y1="152.79" x2="239.47" y2="192.42" gradientTransform="translate(-63.09 122.22) rotate(-15.79)" xlink:href="#linear-gradient"/><linearGradient id="linear-gradient-6" x1="287.44" y1="54.37" x2="302.66" y2="79.68" gradientTransform="translate(16.96 -57.29) rotate(18.77)" xlink:href="#linear-gradient"/><linearGradient id="linear-gradient-7" x1="320.65" y1="54.49" x2="335.87" y2="79.79" gradientTransform="translate(16.96 -57.29) rotate(18.77)" xlink:href="#linear-gradient"/><linearGradient id="linear-gradient-8" x1="287.38" y1="72.17" x2="302.6" y2="97.47" gradientTransform="translate(16.96 -57.29) rotate(18.77)" xlink:href="#linear-gradient"/><linearGradient id="linear-gradient-9" x1="320.59" y1="72.28" x2="335.81" y2="97.59" gradientTransform="translate(16.96 -57.29) rotate(18.77)" xlink:href="#linear-gradient"/><linearGradient id="linear-gradient-10" x1="287.31" y1="89.96" x2="302.54" y2="115.27" gradientTransform="translate(16.96 -57.29) rotate(18.77)" xlink:href="#linear-gradient"/><linearGradient id="linear-gradient-11" x1="320.53" y1="90.08" x2="335.75" y2="115.38" gradientTransform="translate(16.96 -57.29) rotate(18.77)" xlink:href="#linear-gradient"/><linearGradient id="linear-gradient-12" x1="287.25" y1="107.76" x2="302.48" y2="133.06" gradientTransform="translate(16.96 -57.29) rotate(18.77)" xlink:href="#linear-gradient"/><linearGradient id="linear-gradient-13" x1="320.47" y1="107.87" x2="335.69" y2="133.18" gradientTransform="translate(16.96 -57.29) rotate(18.77)" xlink:href="#linear-gradient"/><linearGradient id="linear-gradient-14" x1="287.19" y1="125.55" x2="302.41" y2="150.86" gradientTransform="translate(16.96 -57.29) rotate(18.77)" xlink:href="#linear-gradient"/><linearGradient id="linear-gradient-15" x1="320.41" y1="125.67" x2="335.63" y2="150.97" gradientTransform="translate(16.96 -57.29) rotate(18.77)" xlink:href="#linear-gradient"/><linearGradient id="linear-gradient-16" x1="287.13" y1="143.35" x2="302.35" y2="168.65" gradientTransform="translate(16.96 -57.29) rotate(18.77)" xlink:href="#linear-gradient"/><linearGradient id="linear-gradient-17" x1="320.35" y1="143.46" x2="335.57" y2="168.76" gradientTransform="translate(16.96 -57.29) rotate(18.77)" xlink:href="#linear-gradient"/></defs><title>Asset 1</title><g class="cls-2"><g id="Layer_2" data-name="Layer 2"><g id="Objects"><g id="_Group_" data-name="&lt;Group&gt;"><g id="_Group_2" data-name="&lt;Group&gt;"><circle id="_Path_" data-name="&lt;Path&gt;" class="cls-3" cx="187.23" cy="92.75" r="92.75" transform="matrix(0.11, -0.99, 0.99, 0.11, 73.93, 268.3)"/><circle id="_Path_2" data-name="&lt;Path&gt;" class="cls-4" cx="299.41" cy="162.62" r="37.51"/><g id="_Group_3" data-name="&lt;Group&gt;"><g id="_Group_4" data-name="&lt;Group&gt;"><path id="_Path_3" data-name="&lt;Path&gt;" class="cls-5" d="M117.54,191.65h0L90,143.87,44.72,172.19,72.78,221a17.6,17.6,0,0,0,2.29,3.44c7.74,9.11,23.2,8.69,34.51-.94C120.08,214.57,123.32,200.86,117.54,191.65Z"/><path id="_Path_4" data-name="&lt;Path&gt;" class="cls-6" d="M100.58,205.48a35.85,35.85,0,0,0,6.49-7.26,7.87,7.87,0,0,0-.39-.7h0L96,179a35.69,35.69,0,0,1-5.76,6.21c-12.27,10.43-29,10.9-37.44,1.06l13.22,23C75,216.15,89.58,214.84,100.58,205.48Z"/><path id="_Path_5" data-name="&lt;Path&gt;" class="cls-7" d="M91.28,229.78a19.73,19.73,0,0,1-2.61-3.93L56.55,170l35.65-22.3L90,143.87,44.72,172.19,72.78,221a17.6,17.6,0,0,0,2.29,3.44c4.14,4.88,10.5,7,17.24,6.46C92,230.54,91.61,230.17,91.28,229.78Z"/><ellipse id="_Path_6" data-name="&lt;Path&gt;" class="cls-5" cx="67.88" cy="159.03" rx="26.9" ry="21.65" transform="translate(-86.87 81.88) rotate(-40.39)"/><ellipse id="_Path_7" data-name="&lt;Path&gt;" class="cls-8" cx="67.88" cy="159.03" rx="24.37" ry="19.62" transform="translate(-86.87 81.88) rotate(-40.39)"/><g id="_Clip_Group_" data-name="&lt;Clip Group&gt;"><g class="cls-9"><g id="_Group_5" data-name="&lt;Group&gt;"><path id="_Path_8" data-name="&lt;Path&gt;" class="cls-3" d="M97,169.65l0-4.45h-1a10.11,10.11,0,0,0-18.17.19h-1l0,4.45A10.13,10.13,0,0,0,97,169.65Z"/><circle id="_Path_9" data-name="&lt;Path&gt;" class="cls-4" cx="86.77" cy="165.3" r="10.13" transform="translate(-91.47 109.77) rotate(-45)"/><path id="_Path_10" data-name="&lt;Path&gt;" class="cls-10" d="M76.89,163.13a9.94,9.94,0,0,0,0,4.56l19.72-.21a10.14,10.14,0,0,0,.24-2.28,10.62,10.62,0,0,0-.29-2.28Z"/></g><g id="_Group_6" data-name="&lt;Group&gt;"><path id="_Path_11" data-name="&lt;Path&gt;" class="cls-3" d="M80.33,149.08l-4.09-1.77-.41,1a10.1,10.1,0,0,0-7.22,16.67l-.41,1,4.08,1.77a10.13,10.13,0,0,0,8-18.59Z"/><path id="_Path_12" data-name="&lt;Path&gt;" class="cls-4" d="M81.51,160.63a10.12,10.12,0,1,1-5.27-13.32A10.12,10.12,0,0,1,81.51,160.63Z"/><path id="_Path_13" data-name="&lt;Path&gt;" class="cls-10" d="M66.21,164.75a10,10,0,0,0,2,1.15,10.46,10.46,0,0,0,2.2.66l7.83-18.1A9.9,9.9,0,0,0,74,146.65Z"/></g><g id="_Group_7" data-name="&lt;Group&gt;"><path id="_Path_14" data-name="&lt;Path&gt;" class="cls-3" d="M72,177.73l-1-4.33-1,.24a10.1,10.1,0,0,0-17.67,4.2l-1,.24,1,4.33A10.13,10.13,0,0,0,72,177.73Z"/><circle id="_Path_15" data-name="&lt;Path&gt;" class="cls-4" cx="61.14" cy="175.74" r="10.13" transform="translate(-31.7 14.48) rotate(-10.75)"/><path id="_Path_16" data-name="&lt;Path&gt;" class="cls-10" d="M51,175.8a9.91,9.91,0,0,0,.26,2.28,10.5,10.5,0,0,0,.79,2.16l19.18-4.56A9.91,9.91,0,0,0,71,173.4a10.5,10.5,0,0,0-.79-2.16Z"/></g></g></g></g><g id="_Group_8" data-name="&lt;Group&gt;"><path id="_Path_17" data-name="&lt;Path&gt;" class="cls-3" d="M90.05,127.88l-1-4.33-1,.24A10.11,10.11,0,0,0,70.33,128l-1,.24,1,4.33a10.12,10.12,0,1,0,19.7-4.68Z"/><path id="_Path_18" data-name="&lt;Path&gt;" class="cls-4" d="M81.51,135.74A10.12,10.12,0,1,1,89,123.55,10.12,10.12,0,0,1,81.51,135.74Z"/><path id="_Path_19" data-name="&lt;Path&gt;" class="cls-10" d="M69.05,126a10.58,10.58,0,0,0,.27,2.28,9.68,9.68,0,0,0,.79,2.15l19.18-4.55a9.85,9.85,0,0,0-.26-2.28,10.89,10.89,0,0,0-.79-2.16Z"/></g><g id="_Group_9" data-name="&lt;Group&gt;"><path id="_Path_20" data-name="&lt;Path&gt;" class="cls-3" d="M65.56,92.86l-1-4.33-1,.24A10.11,10.11,0,0,0,45.84,93l-1,.24,1,4.33a10.12,10.12,0,1,0,19.7-4.68Z"/><path id="_Path_21" data-name="&lt;Path&gt;" class="cls-4" d="M57,100.73a10.13,10.13,0,1,1,7.52-12.2A10.13,10.13,0,0,1,57,100.73Z"/><path id="_Path_22" data-name="&lt;Path&gt;" class="cls-10" d="M44.56,90.93a10.44,10.44,0,0,0,.27,2.28,9.58,9.58,0,0,0,.79,2.16L64.8,90.81a10,10,0,0,0-.26-2.28,10.79,10.79,0,0,0-.79-2.15Z"/></g><g id="_Group_10" data-name="&lt;Group&gt;"><path id="_Path_23" data-name="&lt;Path&gt;" class="cls-3" d="M49,117.12l-4.19-4.38L43.65,114c-10.3-3.86-23.59,1.13-31.66,12.63-6.41,9.13-7.85,20-4.6,28.22l-1.17,1.31,6.22,6.2h0a19.52,19.52,0,0,0,2,1.62c10.61,7.45,26.7,2.81,36-10.37C59.32,140.91,58.8,127.28,49,117.12Z"/><path id="_Path_24" data-name="&lt;Path&gt;" class="cls-4" d="M23.92,167.45a20.27,20.27,0,0,1-2.46-.37L6.1,150.22,3,146.78l1.15-1.05,1.67,1.83Z"/><path id="_Path_25" data-name="&lt;Path&gt;" class="cls-4" d="M30.14,167.2c-.62.1-1.25.19-1.87.25L9.44,146.78l1.14-1.05Z"/><path id="_Path_26" data-name="&lt;Path&gt;" class="cls-4" d="M35.31,165.75c-.53.21-1.06.39-1.6.56l-17.8-19.53,1.15-1.05Z"/><path id="_Path_27" data-name="&lt;Path&gt;" class="cls-4" d="M39.78,163.56c-.46.27-.93.54-1.4.78l-16-17.56,1.16-1.05Z"/><path id="_Path_28" data-name="&lt;Path&gt;" class="cls-4" d="M43.73,160.8c-.41.33-.81.65-1.23.95l-13.65-15L30,145.73Z"/><path id="_Path_29" data-name="&lt;Path&gt;" class="cls-4" d="M47.23,157.53c-.35.39-.72.75-1.09,1.11L35.32,146.78l1.16-1.05Z"/><path id="_Path_30" data-name="&lt;Path&gt;" class="cls-4" d="M50.35,153.69c-.31.43-.62.86-1,1.27L36.14,140.41l1.14-1Z"/><path id="_Path_31" data-name="&lt;Path&gt;" class="cls-4" d="M53,149.33c-.25.48-.52,1-.8,1.42l-16.1-17.66L37.28,132Z"/><path id="_Path_32" data-name="&lt;Path&gt;" class="cls-4" d="M55.2,144.36c-.19.55-.39,1.1-.62,1.64L36.14,125.77l1.14-1Z"/><path id="_Path_33" data-name="&lt;Path&gt;" class="cls-4" d="M56.55,138.52c-.08.65-.18,1.31-.31,2l-20.1-22,1.14-1Z"/><path id="_Path_34" data-name="&lt;Path&gt;" class="cls-4" d="M56.67,133.63l-19-20.84-1.52-1.67,1.14-1.05,2.71,3L56.33,131A20.31,20.31,0,0,1,56.67,133.63Z"/><ellipse id="_Path_35" data-name="&lt;Path&gt;" class="cls-4" cx="25.48" cy="134.44" rx="29.15" ry="23.46" transform="translate(-99.18 78.02) rotate(-54.92)"/><g id="_Group_11" data-name="&lt;Group&gt;"><path class="cls-10" d="M30.19,110.46h0a17.28,17.28,0,0,1,10,3.05c9.2,6.47,10.09,21.11,2,32.65-5.32,7.57-13.51,12.27-21.39,12.27a17.29,17.29,0,0,1-10-3.06c-9.2-6.46-10.09-21.11-2-32.65,5.31-7.56,13.51-12.26,21.39-12.26m0-1c-7.94,0-16.5,4.56-22.21,12.69-8.44,12-7.44,27.25,2.23,34a18.17,18.17,0,0,0,10.57,3.24c7.94,0,16.5-4.57,22.21-12.69,8.43-12,7.44-27.26-2.23-34.05a18.23,18.23,0,0,0-10.57-3.23Z"/></g></g></g><g id="_Group_12" data-name="&lt;Group&gt;"><path id="_Path_36" data-name="&lt;Path&gt;" class="cls-6" d="M261.37,260.77,121.71,236.94a7.09,7.09,0,0,1-5.87-7.63L133.56,30.18a7.1,7.1,0,0,1,7.13-6.47l141.67,1.21a7.1,7.1,0,0,1,7,7.73L269.63,254.4A7.1,7.1,0,0,1,261.37,260.77Z"/><polygon id="_Path_37" data-name="&lt;Path&gt;" class="cls-4" points="260.68 253.71 123.51 230.3 140.37 40.93 279.52 42.12 260.68 253.71"/><polygon id="_Path_38" data-name="&lt;Path&gt;" class="cls-11" points="260.68 253.71 123.51 230.3 140.37 40.93 279.52 42.12 260.68 253.71"/><path id="_Path_39" data-name="&lt;Path&gt;" class="cls-10" d="M279.52,42.12,140.37,40.93S121.91,196.82,110.1,206.82l139,30.33Z"/><path id="_Path_40" data-name="&lt;Path&gt;" class="cls-4" d="M110.1,206.82s-15.27-7.39-13.91-28.35l124,29.11s25.63,50.64,30.91,16.79l-2,12.78Z"/><g id="_Group_13" data-name="&lt;Group&gt;"><circle id="_Path_41" data-name="&lt;Path&gt;" class="cls-5" cx="186.35" cy="33.73" r="3.49" transform="translate(-2.97 38.33) rotate(-11.65)"/><circle id="_Path_42" data-name="&lt;Path&gt;" class="cls-5" cx="236.18" cy="33.65" r="3.49" transform="translate(-1.65 52.41) rotate(-12.62)"/></g><path id="_Path_43" data-name="&lt;Path&gt;" class="cls-12" d="M186.35,33.73l-1.11,12.41a3.38,3.38,0,0,0,3.38,3.68l16.58,0,.05-.59A3.57,3.57,0,0,1,208.77,46h1.58a3.55,3.55,0,0,1,3.57,3.84h0l17.73,0A3.38,3.38,0,0,0,235,46.67l1.16-13"/><line id="_Path_44" data-name="&lt;Path&gt;" class="cls-13" x1="158.86" y1="72.11" x2="247" y2="74.43"/><line id="_Path_45" data-name="&lt;Path&gt;" class="cls-13" x1="157.68" y1="85.34" x2="245.82" y2="87.66"/><line id="_Path_46" data-name="&lt;Path&gt;" class="cls-13" x1="155.51" y1="98.48" x2="243.65" y2="100.8"/><line id="_Path_47" data-name="&lt;Path&gt;" class="cls-13" x1="153.33" y1="111.62" x2="241.47" y2="113.94"/><line id="_Path_48" data-name="&lt;Path&gt;" class="cls-13" x1="151.16" y1="124.76" x2="239.3" y2="127.08"/><path id="_Path_49" data-name="&lt;Path&gt;" class="cls-4" d="M193.81,157.71a13.93,13.93,0,1,1-12.64-15.1A13.93,13.93,0,0,1,193.81,157.71Z"/><path id="_Path_50" data-name="&lt;Path&gt;" class="cls-14" d="M154.2,165.23A22.26,22.26,0,0,1,149.47,148c.22-1.47.81-3.16,2.25-3.56,2.1-.61,3.62,2,4.3,4.06.87,2.69,1.75,5.38,2.62,8.07a2.31,2.31,0,0,0,.82,1.34c2.13,1.34,3.13-4.79,5.48-3.87,1.28.5.88,2.47,1.64,3.61s2.84,1.07,4.19.32,2.58-1.88,4.11-2,2.93.65,4.41.5c2.57-.28,4.58-3.37,7.07-2.67"/></g><g id="_Group_14" data-name="&lt;Group&gt;"><path id="_Path_51" data-name="&lt;Path&gt;" class="cls-10" d="M178.93,241l-21.64-8.33a7.62,7.62,0,0,0-9.85,4.38h0a7.63,7.63,0,0,0,4.38,9.86l21.63,8.32a7.64,7.64,0,0,0,9.86-4.38h0A7.62,7.62,0,0,0,178.93,241Z"/><path id="_Path_52" data-name="&lt;Path&gt;" class="cls-5" d="M178.93,241l-10.82-4.17-5.48,14.24,10.82,4.16A7.62,7.62,0,1,0,178.93,241Z"/><path id="_Path_53" data-name="&lt;Path&gt;" class="cls-15" d="M178.72,251l-28-10.76a7.58,7.58,0,0,1-3.48-2.69,7.62,7.62,0,0,0,4.54,9.38l21.63,8.32a7.62,7.62,0,0,0,9.65-3.92A7.6,7.6,0,0,1,178.72,251Z"/></g><g id="_Group_15" data-name="&lt;Group&gt;"><path id="_Path_54" data-name="&lt;Path&gt;" class="cls-10" d="M211.22,214.31l-22.3,6.31a7.62,7.62,0,0,0-5.26,9.41h0a7.62,7.62,0,0,0,9.41,5.26l22.3-6.3a7.63,7.63,0,0,0,5.27-9.41h0A7.63,7.63,0,0,0,211.22,214.31Z"/><path id="_Path_55" data-name="&lt;Path&gt;" class="cls-5" d="M211.22,214.31l-11.15,3.15,4.15,14.68L215.37,229a7.63,7.63,0,1,0-4.15-14.68Z"/><path id="_Path_56" data-name="&lt;Path&gt;" class="cls-16" d="M217,222.43l-28.83,8.15a7.61,7.61,0,0,1-4.39-.08,7.61,7.61,0,0,0,9.25,4.79l22.3-6.3a7.63,7.63,0,0,0,5.38-8.93A7.62,7.62,0,0,1,217,222.43Z"/></g><polygon id="_Path_57" data-name="&lt;Path&gt;" class="cls-6" points="96.17 41.33 88.49 41.33 88.49 33.65 79.93 33.65 79.93 41.33 72.24 41.33 72.24 49.9 79.93 49.9 79.93 57.58 88.49 57.58 88.49 49.9 96.17 49.9 96.17 41.33"/><polygon id="_Path_58" data-name="&lt;Path&gt;" class="cls-5" points="117.98 72.2 112.76 72.2 112.76 66.98 106.95 66.98 106.95 72.2 101.73 72.2 101.73 78.01 106.95 78.01 106.95 83.23 112.76 83.23 112.76 78.01 117.98 78.01 117.98 72.2"/><polygon id="_Path_59" data-name="&lt;Path&gt;" class="cls-6" points="322.62 58.6 317.4 58.6 317.4 53.38 311.59 53.38 311.59 58.6 306.38 58.6 306.38 64.41 311.59 64.41 311.59 69.63 317.4 69.63 317.4 64.41 322.62 64.41 322.62 58.6"/><g id="_Group_16" data-name="&lt;Group&gt;"><path id="_Path_60" data-name="&lt;Path&gt;" class="cls-5" d="M292.72,213.81l36.53-106.29a4.48,4.48,0,0,0-3.11-5.49l-61.4-21.1a4.47,4.47,0,0,0-5.82,2.43L222.39,189.64a4.47,4.47,0,0,0,3.11,5.49l61.4,21.1A4.47,4.47,0,0,0,292.72,213.81Z"/><path id="_Path_61" data-name="&lt;Path&gt;" class="cls-17" d="M282.6,100.47l-14-4.76a4.87,4.87,0,0,0-6.18,3.05h0a4.86,4.86,0,0,0,3,6.17l14,4.76a4.86,4.86,0,0,0,6.18-3h0A4.88,4.88,0,0,0,282.6,100.47Z"/><path id="_Path_62" data-name="&lt;Path&gt;" class="cls-17" d="M314,111.27l-14-4.76a4.86,4.86,0,0,0-6.18,3h0a4.88,4.88,0,0,0,3,6.18l14,4.76a4.87,4.87,0,0,0,6.18-3h0A4.86,4.86,0,0,0,314,111.27Z"/><path id="_Path_63" data-name="&lt;Path&gt;" class="cls-17" d="M276.9,117l-14-4.76a4.86,4.86,0,0,0-6.17,3h0a4.86,4.86,0,0,0,3,6.18l14,4.76a4.87,4.87,0,0,0,6.18-3h0A4.88,4.88,0,0,0,276.9,117Z"/><path id="_Path_64" data-name="&lt;Path&gt;" class="cls-17" d="M308.32,127.83l-14-4.76a4.87,4.87,0,0,0-6.17,3.05h0a4.86,4.86,0,0,0,3,6.17l14,4.76a4.86,4.86,0,0,0,6.18-3h0A4.88,4.88,0,0,0,308.32,127.83Z"/><path id="_Path_65" data-name="&lt;Path&gt;" class="cls-17" d="M271.21,133.61l-14-4.76a4.86,4.86,0,0,0-6.18,3h0a4.88,4.88,0,0,0,3,6.18l14,4.76a4.87,4.87,0,0,0,6.17-3.05h0A4.85,4.85,0,0,0,271.21,133.61Z"/><path id="_Path_66" data-name="&lt;Path&gt;" class="cls-17" d="M302.62,144.4l-14-4.76a4.88,4.88,0,0,0-6.18,3h0a4.88,4.88,0,0,0,3.05,6.18l14,4.76a4.87,4.87,0,0,0,6.18-3h0A4.88,4.88,0,0,0,302.62,144.4Z"/><path id="_Path_67" data-name="&lt;Path&gt;" class="cls-17" d="M265.34,150.7l-14-4.76a4.86,4.86,0,0,0-6.18,3h0a4.88,4.88,0,0,0,3,6.18l14,4.76a4.87,4.87,0,0,0,6.17-3h0A4.86,4.86,0,0,0,265.34,150.7Z"/><path id="_Path_68" data-name="&lt;Path&gt;" class="cls-17" d="M296.75,161.49l-14-4.76a4.87,4.87,0,0,0-6.18,3h0a4.88,4.88,0,0,0,3.05,6.18l14,4.76a4.86,4.86,0,0,0,6.17-3h0A4.86,4.86,0,0,0,296.75,161.49Z"/><path id="_Path_69" data-name="&lt;Path&gt;" class="cls-17" d="M259.52,167.64l-14-4.76a4.87,4.87,0,0,0-6.17,3.05h0a4.86,4.86,0,0,0,3,6.17l14,4.76a4.86,4.86,0,0,0,6.18-3h0A4.88,4.88,0,0,0,259.52,167.64Z"/><path id="_Path_70" data-name="&lt;Path&gt;" class="cls-17" d="M290.93,178.44l-14-4.76a4.86,4.86,0,0,0-6.18,3h0a4.88,4.88,0,0,0,3,6.18l14,4.76a4.87,4.87,0,0,0,6.18-3h0A4.86,4.86,0,0,0,290.93,178.44Z"/><path id="_Path_71" data-name="&lt;Path&gt;" class="cls-17" d="M253.82,184.21l-14-4.76a4.86,4.86,0,0,0-6.17,3h0a4.86,4.86,0,0,0,3,6.18l14,4.76a4.88,4.88,0,0,0,6.18-3h0A4.87,4.87,0,0,0,253.82,184.21Z"/><path id="_Path_72" data-name="&lt;Path&gt;" class="cls-17" d="M285.23,195l-14-4.76a4.87,4.87,0,0,0-6.17,3h0a4.85,4.85,0,0,0,3,6.17l14,4.76a4.86,4.86,0,0,0,6.18-3h0A4.88,4.88,0,0,0,285.23,195Z"/><g id="_Group_17" data-name="&lt;Group&gt;"><g id="_Group_18" data-name="&lt;Group&gt;"><g id="_Group_19" data-name="&lt;Group&gt;"><path id="_Path_73" data-name="&lt;Path&gt;" class="cls-10" d="M283.53,97.77l-14-4.76a4.86,4.86,0,0,0-6.18,3h0a4.87,4.87,0,0,0,3,6.18l14,4.76a4.88,4.88,0,0,0,6.18-3h0A4.87,4.87,0,0,0,283.53,97.77Z"/><path id="_Path_74" data-name="&lt;Path&gt;" class="cls-18" d="M283.65,104.14,265.53,98a4.87,4.87,0,0,1-2.28-1.63,4.87,4.87,0,0,0,3.13,5.87l14,4.76a4.87,4.87,0,0,0,6.06-2.75A4.79,4.79,0,0,1,283.65,104.14Z"/></g><g id="_Group_20" data-name="&lt;Group&gt;"><path id="_Path_75" data-name="&lt;Path&gt;" class="cls-10" d="M314.94,108.56l-14-4.76a4.87,4.87,0,0,0-6.18,3h0a4.88,4.88,0,0,0,3,6.18l14,4.76a4.87,4.87,0,0,0,6.18-3h0A4.87,4.87,0,0,0,314.94,108.56Z"/><path id="_Path_76" data-name="&lt;Path&gt;" class="cls-19" d="M315.06,114.94,297,108.78a4.9,4.9,0,0,1-2.29-1.63,4.87,4.87,0,0,0,3.13,5.87l14,4.76a4.86,4.86,0,0,0,6.06-2.75A4.79,4.79,0,0,1,315.06,114.94Z"/></g></g><g id="_Group_21" data-name="&lt;Group&gt;"><g id="_Group_22" data-name="&lt;Group&gt;"><path id="_Path_77" data-name="&lt;Path&gt;" class="cls-10" d="M277.74,114.6l-14-4.77a4.87,4.87,0,0,0-6.17,3h0a4.85,4.85,0,0,0,3,6.17l14,4.77a4.88,4.88,0,0,0,6.18-3h0A4.87,4.87,0,0,0,277.74,114.6Z"/><path id="_Path_78" data-name="&lt;Path&gt;" class="cls-20" d="M277.87,121l-18.12-6.15a4.78,4.78,0,0,1-2.28-1.64,4.87,4.87,0,0,0,3.13,5.87l14,4.77a4.87,4.87,0,0,0,6.06-2.75A4.88,4.88,0,0,1,277.87,121Z"/></g><g id="_Group_23" data-name="&lt;Group&gt;"><path id="_Path_79" data-name="&lt;Path&gt;" class="cls-10" d="M309.16,125.39l-14-4.76a4.86,4.86,0,0,0-6.17,3h0a4.87,4.87,0,0,0,3,6.18l14,4.76a4.88,4.88,0,0,0,6.18-3h0A4.88,4.88,0,0,0,309.16,125.39Z"/><path id="_Path_80" data-name="&lt;Path&gt;" class="cls-21" d="M309.28,131.76l-18.12-6.15a4.87,4.87,0,0,1-2.28-1.63,4.87,4.87,0,0,0,3.13,5.87l14,4.76a4.87,4.87,0,0,0,6.06-2.75A4.79,4.79,0,0,1,309.28,131.76Z"/></g></g><g id="_Group_24" data-name="&lt;Group&gt;"><g id="_Group_25" data-name="&lt;Group&gt;"><path id="_Path_81" data-name="&lt;Path&gt;" class="cls-10" d="M272,131.42l-14-4.76a4.88,4.88,0,0,0-6.18,3.05h0a4.87,4.87,0,0,0,3,6.17l14,4.76a4.85,4.85,0,0,0,6.17-3h0A4.86,4.86,0,0,0,272,131.42Z"/><path id="_Path_82" data-name="&lt;Path&gt;" class="cls-22" d="M272.08,137.8,254,131.64a4.82,4.82,0,0,1-2.28-1.63,4.85,4.85,0,0,0,3.13,5.87l14,4.76a4.87,4.87,0,0,0,6.06-2.74A4.91,4.91,0,0,1,272.08,137.8Z"/></g><g id="_Group_26" data-name="&lt;Group&gt;"><path id="_Path_83" data-name="&lt;Path&gt;" class="cls-10" d="M303.37,142.22l-14-4.76a4.85,4.85,0,0,0-6.17,3h0a4.86,4.86,0,0,0,3,6.18l14,4.76a4.88,4.88,0,0,0,6.18-3.05h0A4.87,4.87,0,0,0,303.37,142.22Z"/><path id="_Path_84" data-name="&lt;Path&gt;" class="cls-23" d="M303.49,148.59l-18.11-6.15a4.82,4.82,0,0,1-2.28-1.63,4.86,4.86,0,0,0,3.13,5.87l14,4.76a4.87,4.87,0,0,0,6.06-2.75A4.83,4.83,0,0,1,303.49,148.59Z"/></g></g><g id="_Group_27" data-name="&lt;Group&gt;"><g id="_Group_28" data-name="&lt;Group&gt;"><path id="_Path_85" data-name="&lt;Path&gt;" class="cls-10" d="M266.18,148.25l-14-4.76a4.87,4.87,0,0,0-6.18,3h0a4.88,4.88,0,0,0,3,6.18l14,4.76a4.86,4.86,0,0,0,6.17-3h0A4.87,4.87,0,0,0,266.18,148.25Z"/><path id="_Path_86" data-name="&lt;Path&gt;" class="cls-24" d="M266.3,154.63l-18.11-6.16a4.9,4.9,0,0,1-2.29-1.63,4.87,4.87,0,0,0,3.13,5.87l14,4.76a4.85,4.85,0,0,0,6.05-2.75A4.79,4.79,0,0,1,266.3,154.63Z"/></g><g id="_Group_29" data-name="&lt;Group&gt;"><path id="_Path_87" data-name="&lt;Path&gt;" class="cls-10" d="M297.59,159l-14-4.76a4.88,4.88,0,0,0-6.18,3.05h0a4.87,4.87,0,0,0,3.05,6.17l14,4.77a4.87,4.87,0,0,0,6.17-3.05h0A4.87,4.87,0,0,0,297.59,159Z"/><path id="_Path_88" data-name="&lt;Path&gt;" class="cls-25" d="M297.71,165.42l-18.11-6.16a4.69,4.69,0,0,1-2.28-1.63,4.85,4.85,0,0,0,3.13,5.87l14,4.77a4.87,4.87,0,0,0,6.06-2.75A4.91,4.91,0,0,1,297.71,165.42Z"/></g></g><g id="_Group_30" data-name="&lt;Group&gt;"><g id="_Group_31" data-name="&lt;Group&gt;"><path id="_Path_89" data-name="&lt;Path&gt;" class="cls-10" d="M260.4,165.08l-14-4.76a4.87,4.87,0,0,0-6.18,3h0a4.87,4.87,0,0,0,3,6.18l14,4.76a4.88,4.88,0,0,0,6.18-3h0A4.87,4.87,0,0,0,260.4,165.08Z"/><path id="_Path_90" data-name="&lt;Path&gt;" class="cls-26" d="M260.52,171.45,242.4,165.3a4.87,4.87,0,0,1-2.28-1.63,4.87,4.87,0,0,0,3.13,5.87l14,4.76a4.87,4.87,0,0,0,6.06-2.75A4.79,4.79,0,0,1,260.52,171.45Z"/></g><g id="_Group_32" data-name="&lt;Group&gt;"><path id="_Path_91" data-name="&lt;Path&gt;" class="cls-10" d="M291.81,175.87l-14-4.76a4.88,4.88,0,0,0-6.18,3h0a4.87,4.87,0,0,0,3,6.17l14,4.76a4.86,4.86,0,0,0,6.18-3h0A4.87,4.87,0,0,0,291.81,175.87Z"/><path id="_Path_92" data-name="&lt;Path&gt;" class="cls-27" d="M291.93,182.25l-18.11-6.16a4.9,4.9,0,0,1-2.29-1.63,4.87,4.87,0,0,0,3.13,5.87l14,4.76a4.86,4.86,0,0,0,6.06-2.74A4.88,4.88,0,0,1,291.93,182.25Z"/></g></g><g id="_Group_33" data-name="&lt;Group&gt;"><g id="_Group_34" data-name="&lt;Group&gt;"><path id="_Path_93" data-name="&lt;Path&gt;" class="cls-10" d="M254.61,181.91l-14-4.76a4.85,4.85,0,0,0-6.17,3h0a4.86,4.86,0,0,0,3,6.18l14,4.76a4.88,4.88,0,0,0,6.18-3h0A4.87,4.87,0,0,0,254.61,181.91Z"/><path id="_Path_94" data-name="&lt;Path&gt;" class="cls-28" d="M254.74,188.28l-18.12-6.15a4.82,4.82,0,0,1-2.28-1.63,4.87,4.87,0,0,0,3.13,5.87l14,4.76a4.87,4.87,0,0,0,6.06-2.75A4.79,4.79,0,0,1,254.74,188.28Z"/></g><g id="_Group_35" data-name="&lt;Group&gt;"><path id="_Path_95" data-name="&lt;Path&gt;" class="cls-10" d="M286,192.7l-14-4.76a4.86,4.86,0,0,0-6.17,3h0a4.87,4.87,0,0,0,3,6.18l14,4.76a4.87,4.87,0,0,0,6.18-3h0A4.88,4.88,0,0,0,286,192.7Z"/><path id="_Path_96" data-name="&lt;Path&gt;" class="cls-29" d="M286.15,199.08,268,192.92a4.87,4.87,0,0,1-2.28-1.63,4.87,4.87,0,0,0,3.13,5.87l14,4.76a4.86,4.86,0,0,0,6.06-2.75A4.79,4.79,0,0,1,286.15,199.08Z"/></g></g></g></g><path id="_Path_97" data-name="&lt;Path&gt;" class="cls-6" d="M299.41,234.64a6.58,6.58,0,1,1-6.58-6.58A6.57,6.57,0,0,1,299.41,234.64Z"/><path id="_Path_98" data-name="&lt;Path&gt;" class="cls-6" d="M45,212.71a6.58,6.58,0,1,1-6.58-6.59A6.58,6.58,0,0,1,45,212.71Z"/><path id="_Path_99" data-name="&lt;Path&gt;" class="cls-6" d="M309.15,248.48a3.49,3.49,0,1,1-3.48-3.49A3.48,3.48,0,0,1,309.15,248.48Z"/><path id="_Path_100" data-name="&lt;Path&gt;" class="cls-6" d="M27.78,201.25a3.49,3.49,0,1,1-3.48-3.48A3.48,3.48,0,0,1,27.78,201.25Z"/><ellipse id="_Path_101" data-name="&lt;Path&gt;" class="cls-30" cx="176.18" cy="279.11" rx="146.44" ry="5.63"/></g></g></g></g></g></svg>